<svg width="21" height="21" viewBox="0 0 21 21" fill="none" xmlns="http://www.w3.org/2000/svg">
<path d="M10.5 10.5C11.8427 10.5 13.1303 9.96663 14.0797 9.01723C15.0291 8.06782 15.5625 6.78016 15.5625 5.4375C15.5625 4.09484 15.0291 2.80717 14.0797 1.85777C13.1303 0.908369 11.8427 0.375 10.5 0.375C9.15734 0.375 7.86968 0.908369 6.92027 1.85777C5.97087 2.80717 5.4375 4.09484 5.4375 5.4375C5.4375 6.78016 5.97087 8.06782 6.92027 9.01723C7.86968 9.96663 9.15734 10.5 10.5 10.5ZM13.875 5.4375C13.875 6.33261 13.5194 7.19105 12.8865 7.82399C12.2535 8.45692 11.3951 8.8125 10.5 8.8125C9.60489 8.8125 8.74645 8.45692 8.11351 7.82399C7.48058 7.19105 7.125 6.33261 7.125 5.4375C7.125 4.54239 7.48058 3.68395 8.11351 3.05101C8.74645 2.41808 9.60489 2.0625 10.5 2.0625C11.3951 2.0625 12.2535 2.41808 12.8865 3.05101C13.5194 3.68395 13.875 4.54239 13.875 5.4375ZM20.625 18.9375C20.625 20.625 18.9375 20.625 18.9375 20.625H2.0625C2.0625 20.625 0.375 20.625 0.375 18.9375C0.375 17.25 2.0625 12.1875 10.5 12.1875C18.9375 12.1875 20.625 17.25 20.625 18.9375ZM18.9375 18.9307C18.9358 18.5156 18.6776 17.2669 17.5335 16.1227C16.4333 15.0225 14.3627 13.875 10.5 13.875C6.63562 13.875 4.56675 15.0225 3.4665 16.1227C2.32238 17.2669 2.06588 18.5156 2.0625 18.9307H18.9375Z" fill="black"/>
</svg>
